<?xml version="1.0" encoding="utf-8"?><!-- Uploaded to: SVG Repo, www.svgrepo.com, Generator: SVG Repo Mixer Tools -->
<svg fill="#000000" width="800px" height="800px" viewBox="0 0 24 24" id="love-playlist-2" data-name="Line Color" xmlns="http://www.w3.org/2000/svg" class="icon line-color"><path id="secondary" d="M14,15h7m-7,4h7M19.12,4.24,19,4.35l-.12-.11a.81.81,0,0,0-1.15,0h0a.82.82,0,0,0,0,1.16l.33.34.94.94.92-.93.33-.33a.83.83,0,0,0,0-1.17A.81.81,0,0,0,19.12,4.24Z" style="fill: none; stroke: rgb(44, 169, 188); stroke-linecap: round; stroke-linejoin: round; stroke-width: 2;"></path><path id="primary" d="M10,17.5V3M6.5,14A3.5,3.5,0,1,0,10,17.5,3.5,3.5,0,0,0,6.5,14Z" style="fill: none; stroke: rgb(0, 0, 0); stroke-linecap: round; stroke-linejoin: round; stroke-width: 2;"></path></svg>