<?xml version="1.0" encoding="utf-8"?><!-- Uploaded to: SVG Repo, www.svgrepo.com, Generator: SVG Repo Mixer Tools -->
<svg fill="#000000" width="800px" height="800px" viewBox="0 0 24 24" id="love-playlist-2" data-name="Flat Color" xmlns="http://www.w3.org/2000/svg" class="icon flat-color"><path id="secondary" d="M21,20H14a1,1,0,0,1,0-2h7a1,1,0,0,1,0,2Zm0-4H14a1,1,0,0,1,0-2h7a1,1,0,0,1,0,2ZM19,7.68a1,1,0,0,1-.71-.3L17,6.11a1.84,1.84,0,0,1,0-2.57l0,0A1.79,1.79,0,0,1,18.32,3a2.12,2.12,0,0,1,.7.14A1.8,1.8,0,0,1,21,3.55a1.84,1.84,0,0,1,0,2.57L19.72,7.38A1,1,0,0,1,19,7.68Z" style="fill: rgb(44, 169, 188);"></path><path id="primary" d="M10,2A1,1,0,0,0,9,3V13.76a4.5,4.5,0,1,0,2,3.74V3A1,1,0,0,0,10,2Z" style="fill: rgb(0, 0, 0);"></path></svg>