<?xml version="1.0" ?>
<!-- Uploaded to: SVG Repo, www.svgrepo.com, Generator: SVG Repo Mixer Tools -->
<svg fill="#000000" width="800px" height="800px" viewBox="0 0 50 50" xmlns="http://www.w3.org/2000/svg">
<g id="Solid">
<path d="M47,46H46V41a1,1,0,0,0-2,0v1H6V41a1,1,0,0,0-2,0v5H3a1,1,0,0,0,0,2H47a1,1,0,0,0,0-2Zm-3,0H41V44h3ZM6,44H9v2H6ZM22.10547,13.44727a1.00012,1.00012,0,1,1,1.78906-.89454L25,14.76367l1.10547-2.21094a1.00012,1.00012,0,0,1,1.78906.89454L26.14319,16.95,40.32782,40H31.70361L25.90625,27.57715a1.00008,1.00008,0,0,0-1.8125,0L18.29639,40H9.67218L23.85681,16.95ZM26,40V32.50757L29.49646,40Zm-2,0H20.50354L24,32.50757Zm6-29.019a9.01442,9.01442,0,0,1,8.27734-8.97657A.99922.99922,0,0,1,39.3374,3.24756a6.96092,6.96092,0,0,0-.2251,1.71924,7.08248,7.08248,0,0,0,7.12842,7.019c.22559,0,.44776-.01367.668-.03369a.99979.99979,0,0,1,1.06006,1.24365A9.136,9.136,0,0,1,30,10.981ZM2,19.5a1,1,0,0,1,.68359-.94873,6.98889,6.98889,0,0,0,4.83692-4.75342,1.00373,1.00373,0,0,1,.979-.79443h.00635a.99732.99732,0,0,1,.97461.80029,6.991,6.991,0,0,0,4.83594,4.74756,1.00015,1.00015,0,0,1,0,1.89746,6.98889,6.98889,0,0,0-4.83692,4.75342,1.00373,1.00373,0,0,1-.979.79443H8.49414a.99732.99732,0,0,1-.97461-.80029,6.991,6.991,0,0,0-4.83594-4.74756A1,1,0,0,1,2,19.5Zm7-11a1,1,0,0,1,.68359-.94873,6.98889,6.98889,0,0,0,4.83692-4.75342,1.00373,1.00373,0,0,1,.979-.79443h.00635a.99732.99732,0,0,1,.97461.80029,6.991,6.991,0,0,0,4.83594,4.74756,1.00015,1.00015,0,0,1,0,1.89746,6.98889,6.98889,0,0,0-4.83692,4.75342,1.00373,1.00373,0,0,1-.979.79443h-.00635a.99732.99732,0,0,1-.97461-.80029A6.991,6.991,0,0,0,9.68359,9.44873,1,1,0,0,1,9,8.5Z"/>
</g>
</svg>